# xmcd
#
# Track frame offsets:
#	150
#	23850
#	41548
#	58048
#	87443
#	121341
#	134177
#	149482
#	163882
#	175850
#	189291
#	206050
#	226390
#	245587
#	258562
#	272505
#	282098
#	295246
#	309323
#	323172
#
# Disc length: 4322 seconds
#
# Revision: 1
# Processed by: cddbd v1.4PL0 Copyright (c) Steve Scherf et al.
# Submitted via: audiograbber 1.81.02
#
DISCID=3210e014
DTITLE=Various Artist - Scottish Linedance Party
DYEAR=2000
DGENRE=Country
TTITLE0=Satori - Radar Love
TTITLE1=Satori - Fantasy
TTITLE2=Satori - I Can Fly
TTITLE3=Satori - Satorimix Album Sampler
TTITLE4=Satori - Interview
TTITLE5=48 Crash - Rock U Down
TTITLE6=Dr. Grim and The Undertakers - The Model
TTITLE7=Jake and Elwood - Rubber Biscuit
TTITLE8=Jake and Elwood - Guilty
TTITLE9=Jake and Elwood - Blues Brothers Medley
TTITLE10=Scott Perry - My Life
TTITLE11=Teenage Rampage - Let's Go All The Way
TTITLE12=Millennium Puppets - Scottish Linedance Party
TTITLE13=Crysstal Bass - Hit It
TTITLE14=Emma Price - I've Never Been To Me
TTITLE15=Sherrick Brothers - One Man Woman
TTITLE16=Crush - Rock On
TTITLE17=Tease - I Think I'm In Love
TTITLE18=Brian Goldfort - Animal Woman
TTITLE19=Unknown - Unknown
EXTD=
EXTT0=
EXTT1=
EXTT2=
EXTT3=
EXTT4=
EXTT5=
EXTT6=
EXTT7=
EXTT8=
EXTT9=
EXTT10=
EXTT11=
EXTT12=
EXTT13=
EXTT14=
EXTT15=
EXTT16=
EXTT17=
EXTT18=
EXTT19=
PLAYORDER=
